HIERARCHY
ROOT Hips
{
  OFFSET 0.0000 0.0000 0.0000
  CHANNELS 6 Xposition Yposition Zposition Zrotation Xrotation Yrotation
  JOINT LeftHip
  {
    OFFSET 5.5118 0.0000 -0.0000
    CHANNELS 3 Zrotation Xrotation Yrotation
    JOINT LeftKnee
    {
      OFFSET 0.0000 -17.7165 0.0000
      CHANNELS 3 Zrotation Xrotation Yrotation
      JOINT LeftAnkle
      {
        OFFSET 0.0000 -16.1417 0.0000
        CHANNELS 3 Zrotation Xrotation Yrotation
        End Site
        {
            OFFSET -0.0000 -4.7244 -3.9370
        }
      }
    }
  }
  JOINT RightHip
  {
    OFFSET -5.5118 0.0000 -0.0000
    CHANNELS 3 Zrotation Xrotation Yrotation
    JOINT RightKnee
    {
      OFFSET 0.0000 -17.7165 0.0000
      CHANNELS 3 Zrotation Xrotation Yrotation
      JOINT RightAnkle
      {
        OFFSET 0.0000 -16.1417 -0.0000
        CHANNELS 3 Zrotation Xrotation Yrotation
        End Site
        {
            OFFSET -0.0000 -4.7244 -3.9370
        }
      }
    }
  }
  JOINT Chest
  {
    OFFSET 0.0000 2.9528 -1.9685
    CHANNELS 3 Zrotation Xrotation Yrotation
    JOINT LeftCollar
    {
      OFFSET 0.0000 16.9291 1.9685
      CHANNELS 3 Zrotation Xrotation Yrotation
      JOINT LeftShoulder
      {
        OFFSET 7.8740 0.0000 0.0000
        CHANNELS 3 Zrotation Xrotation Yrotation
        JOINT LeftElbow
        {
          OFFSET -0.0000 -11.8110 0.0000
          CHANNELS 3 Zrotation Xrotation Yrotation
          JOINT LeftWrist
          {
            OFFSET 0.0000 -10.2362 -0.0000
            CHANNELS 3 Zrotation Xrotation Yrotation
            End Site
            {
                OFFSET -0.0000 -6.6929 0.0000
            }
          }
        }
      }
    }
    JOINT RightCollar
    {
      OFFSET 0.0000 16.9291 1.9685
      CHANNELS 3 Zrotation Xrotation Yrotation
      JOINT RightShoulder
      {
        OFFSET -7.8740 -0.0000 0.0000
        CHANNELS 3 Zrotation Xrotation Yrotation
        JOINT RightElbow
        {
          OFFSET 0.0000 -11.8110 0.0000
          CHANNELS 3 Zrotation Xrotation Yrotation
          JOINT RightWrist
          {
            OFFSET 0.0000 -10.2362 0.0000
            CHANNELS 3 Zrotation Xrotation Yrotation
            End Site
            {
                OFFSET 0.0000 -6.6929 0.0000
            }
          }
        }
      }
    }
    JOINT Neck
    {
      OFFSET 0.0000 16.9291 1.9685
      CHANNELS 3 Zrotation Xrotation Yrotation
      JOINT Head
      {
        OFFSET 0.0000 4.7244 0.0000
        CHANNELS 3 Zrotation Xrotation Yrotation
        End Site
        {
            OFFSET 0.0000 7.8740 0.0000
        }
      }
    }
  }
}
MOTION
Frames:	23
Frame Time:	0.033333
-0.7218 38.7016 -0.6737 0.73 -0.52 -2.05 -2.52 1.27 -0.01 1.00 6.31 0.00 -2.38 -2.32 -1.71 3.34 3.65 4.98 -1.00 3.40 0.00 2.08 -0.19 0.00 -1.45 -3.31 -0.13 -7.52 0.81 -0.01 17.22 10.37 -2.25 -6.80 -23.26 10.41 -13.16 11.69 -11.43 8.48 0.81 -0.01 -15.45 7.17 0.28 7.95 -17.29 -10.02 17.98 12.94 17.48 -8.55 13.24 1.77 23.51 -36.55 -29.28 
-0.7223 38.7016 -0.6717 0.73 -0.52 -2.09 -2.52 0.39 -0.00 1.00 6.32 0.00 -2.39 -2.49 -1.71 3.34 3.65 4.98 -1.00 3.40 0.00 2.08 -0.19 0.00 -1.45 -3.31 -0.13 -7.52 0.81 -0.01 17.22 10.37 -2.25 -6.84 -23.07 10.40 -13.16 11.69 -11.43 8.48 0.81 -0.01 -15.45 7.17 0.28 7.94 -17.31 -10.02 17.75 12.86 17.36 -8.19 13.11 1.70 23.62 -36.26 -28.15 
-0.6119 38.7091 -0.6852 0.73 -0.52 -1.93 -2.52 0.55 -0.00 1.00 6.32 0.00 -2.39 -2.49 -1.71 3.18 3.63 4.99 -1.00 3.40 0.00 2.08 -0.19 0.00 -1.45 -3.31 -0.13 -7.52 0.81 -0.01 17.21 10.03 -2.24 -6.88 -22.88 10.38 -13.20 11.54 -11.26 8.48 0.81 -0.01 -15.45 7.17 0.28 7.91 -17.51 -10.03 17.61 12.82 17.22 -7.76 13.01 1.61 24.34 -36.12 -26.69 
-0.5966 38.7117 -0.6213 0.73 -0.52 -2.04 -2.52 0.55 -0.00 1.00 6.32 0.00 -2.23 -2.66 -1.70 3.18 3.63 4.99 -1.00 3.56 0.00 1.92 -0.19 -0.00 -1.45 -3.31 -0.13 -7.52 0.81 -0.01 17.21 10.03 -2.24 -6.93 -22.60 10.36 -13.20 11.54 -11.26 8.48 0.81 -0.01 -15.45 7.17 0.28 7.98 -17.13 -10.01 17.20 12.83 17.28 -7.62 12.89 1.58 23.41 -36.09 -26.38 
-0.5969 38.7117 -0.6204 0.73 -0.52 -2.06 -2.68 0.63 -0.00 1.00 6.32 0.00 -2.23 -2.66 -1.70 3.18 3.63 4.99 -1.00 3.56 0.00 1.92 -0.19 -0.00 -1.29 -3.31 -0.11 -7.52 0.81 -0.01 17.21 10.03 -2.24 -6.97 -22.41 10.35 -13.03 11.54 -11.29 8.48 0.81 -0.01 -15.45 7.17 0.28 8.05 -16.75 -9.99 17.20 12.83 17.28 -7.54 12.84 1.56 23.43 -35.78 -25.49 
-0.6103 38.7105 -0.6204 0.73 -0.52 -2.05 -2.68 0.63 -0.00 1.00 6.32 0.00 -2.23 -2.66 -1.70 3.18 3.63 4.99 -1.00 3.56 0.00 2.08 -0.19 0.00 -1.13 -3.31 -0.10 -7.52 0.81 -0.01 17.21 10.03 -2.24 -6.97 -22.41 10.35 -13.03 11.54 -11.29 8.48 0.81 -0.01 -15.45 7.17 0.28 8.05 -16.75 -9.99 17.20 12.83 17.28 -7.82 12.79 1.62 22.18 -35.73 -25.65 
-0.6165 38.6985 -0.7528 0.73 -0.52 -2.09 -2.68 0.79 -0.00 1.00 6.32 0.00 -2.23 -2.82 -1.70 3.20 3.47 4.99 -1.00 3.57 0.00 2.08 -0.52 0.00 -1.13 -3.31 -0.10 -7.68 0.81 -0.00 17.21 10.03 -2.24 -6.97 -22.40 10.35 -13.06 11.38 -11.28 8.32 0.81 -0.00 -15.45 7.17 0.28 8.08 -16.56 -9.98 17.20 12.83 17.28 -7.85 12.75 1.63 21.96 -35.87 -25.70 
-0.6215 38.6457 -0.9676 0.73 -0.52 -2.01 -2.68 1.19 -0.01 1.00 6.32 0.00 -2.23 -2.82 -1.70 3.21 3.31 4.99 -1.00 3.60 0.00 2.08 -1.84 0.00 -0.97 -3.31 -0.08 -7.68 0.81 -0.00 17.21 10.03 -2.24 -6.97 -22.42 10.35 -13.07 11.40 -11.04 8.32 0.81 -0.00 -15.45 6.94 0.28 8.08 -16.56 -9.98 17.20 12.83 17.28 -7.87 12.70 1.63 21.81 -36.01 -25.73 
-0.6368 38.6410 -0.9600 0.72 -0.52 -2.27 -2.68 1.03 -0.01 1.00 6.32 0.00 -2.07 -2.83 -1.70 3.21 3.31 4.99 -1.00 3.60 0.00 2.24 -1.93 0.01 -0.97 -3.31 -0.08 -7.68 0.81 -0.00 17.21 10.03 -2.24 -6.96 -22.44 10.35 -13.11 11.26 -10.79 8.32 0.81 -0.00 -15.45 6.94 0.28 8.08 -16.56 -9.98 17.20 12.83 17.28 -7.87 12.70 1.63 21.81 -36.01 -25.73 
-0.6467 38.6565 -1.1552 0.73 -0.52 -2.11 -2.68 1.03 -0.01 1.00 6.33 0.00 -2.24 -2.99 -1.70 3.24 2.91 4.99 -1.00 3.76 0.00 2.24 -1.60 0.01 -0.97 -3.31 -0.08 -7.68 0.81 -0.00 17.21 10.03 -2.24 -6.96 -22.44 10.35 -13.11 11.26 -10.79 8.32 0.81 -0.00 -15.45 6.94 0.28 8.07 -16.59 -9.98 17.22 12.84 16.95 -7.83 12.71 1.62 21.95 -35.99 -25.68 
-0.6469 38.6183 -1.2141 0.72 -0.52 -2.32 -2.68 1.03 -0.01 1.00 6.17 0.00 -2.24 -3.00 -1.70 3.24 2.91 4.99 -1.00 3.78 0.00 2.24 -2.50 0.01 -0.97 -3.31 -0.08 -7.68 0.81 -0.00 17.21 10.03 -2.24 -6.96 -22.44 10.35 -13.11 11.26 -10.79 8.32 0.81 -0.00 -15.45 6.94 0.28 8.07 -16.59 -9.98 17.06 12.84 16.98 -7.83 12.71 1.62 21.95 -35.99 -25.68 
-0.6476 38.6219 -1.1986 0.72 -0.53 -2.50 -2.44 1.44 -0.01 1.00 5.84 0.00 -2.48 -3.00 -1.72 3.24 2.91 4.99 -1.00 3.78 0.00 2.24 -2.42 0.01 -0.81 -3.31 -0.07 -7.68 0.81 -0.00 17.22 10.26 -2.25 -6.96 -22.44 10.35 -13.11 11.26 -10.79 8.32 0.81 -0.00 -15.45 6.94 0.28 8.07 -16.61 -9.98 16.97 12.64 16.66 -7.83 12.71 1.62 21.62 -35.75 -25.76 
-0.6597 38.6625 -0.9888 0.72 -0.53 -2.94 -2.44 1.60 -0.02 1.00 5.52 0.00 -2.80 -3.00 -1.74 3.24 2.91 4.99 -1.00 4.08 0.00 2.40 -1.51 0.02 -0.81 -3.53 -0.07 -7.68 0.81 -0.00 17.22 10.48 -2.25 -6.96 -22.44 10.35 -13.11 11.26 -10.79 8.32 0.81 -0.00 -15.45 7.17 0.28 8.06 -16.65 -9.98 17.05 12.49 16.16 -7.73 12.71 1.60 21.47 -35.39 -25.82 
-0.6278 38.5725 -1.2474 0.72 -0.54 -3.28 -2.27 1.60 -0.02 1.00 5.20 0.00 -3.12 -2.84 -1.75 3.27 2.67 4.99 -1.00 4.29 0.00 2.00 -3.74 -0.00 -0.81 -3.53 -0.07 -7.68 0.64 -0.00 17.22 10.48 -2.25 -6.96 -22.44 10.35 -13.11 11.26 -10.79 8.32 0.64 -0.00 -15.45 7.17 0.28 8.06 -16.65 -9.98 16.89 12.50 16.19 -7.74 12.66 1.60 21.28 -35.53 -25.65 
-0.6362 38.6443 -1.2674 0.71 -0.54 -3.52 -2.27 1.84 -0.02 1.00 5.04 0.00 -3.12 -2.84 -1.75 3.29 2.35 4.99 -1.00 4.41 0.00 2.00 -2.09 0.00 -0.81 -3.53 -0.07 -7.68 0.64 -0.00 17.22 10.48 -2.25 -6.96 -22.44 10.35 -13.11 11.26 -10.79 8.32 0.64 -0.00 -15.45 7.17 0.28 8.06 -16.65 -9.98 16.89 12.50 16.19 -7.70 12.67 1.60 21.45 -35.41 -25.47 
-0.6220 38.6830 -0.9497 0.71 -0.54 -4.02 -2.27 2.16 -0.03 1.00 5.04 0.00 -3.28 -2.84 -1.76 3.29 2.35 4.99 -1.00 5.04 0.00 1.84 -1.35 -0.01 -0.81 -3.53 -0.07 -7.68 0.64 -0.00 17.22 10.48 -2.25 -6.97 -22.43 10.35 -13.31 11.09 -10.76 8.32 0.64 -0.00 -15.45 7.17 0.28 8.06 -16.65 -9.98 16.72 12.50 16.21 -7.68 12.62 1.59 21.13 -35.23 -25.45 
-0.6634 38.5458 -1.3386 0.71 -0.55 -4.36 -2.03 2.16 -0.04 1.00 4.87 0.00 -3.53 -2.84 -1.77 3.34 1.87 4.99 -1.00 5.63 0.00 1.76 -5.97 -0.01 -0.81 -3.53 -0.07 -7.68 0.64 -0.00 17.44 10.03 -2.28 -6.97 -22.43 10.35 -13.39 11.06 -10.74 8.32 0.64 -0.00 -15.45 7.17 0.28 8.03 -16.84 -9.99 17.25 12.43 16.13 -7.44 12.57 1.54 21.71 -35.00 -24.96 
-0.6132 38.6493 -1.3271 -0.70 0.45 -4.66 -2.03 2.16 -0.04 1.00 4.87 0.00 -3.53 -2.84 -1.77 3.36 1.55 4.99 -1.00 6.52 0.00 1.76 -2.42 -0.01 -0.81 -3.53 -0.07 -7.68 0.64 -0.00 17.44 9.80 -2.27 -6.81 -23.20 10.41 -13.43 11.26 -10.74 8.32 0.64 -0.00 -15.45 7.17 0.28 7.91 -17.51 -10.03 17.90 12.49 16.02 -7.26 12.53 1.51 22.09 -35.34 -24.38 
-0.6223 38.6410 -1.2444 -0.69 0.45 -4.86 -2.03 2.32 -0.04 1.00 4.88 0.00 -3.53 -3.01 -1.77 3.39 1.23 4.99 -1.00 7.10 0.00 1.52 -3.33 -0.03 -0.97 -3.31 -0.08 -7.68 0.64 -0.00 17.76 9.22 -2.31 -6.58 -24.36 10.50 -13.73 11.43 -10.69 8.32 0.64 -0.00 -15.45 7.17 0.28 7.86 -17.73 -10.04 18.31 12.62 15.79 -7.39 12.46 1.53 21.40 -35.60 -24.35 
-0.7020 38.6209 -1.3450 -0.55 0.36 -5.12 -2.03 2.32 -0.04 1.00 4.88 0.00 -3.70 -3.25 -1.78 3.58 0.92 4.99 -1.00 7.94 0.00 1.51 -8.43 -0.03 -1.29 -2.74 -0.11 -7.84 0.81 -0.00 18.31 8.99 -2.39 -6.26 -25.92 10.64 -14.25 11.53 -11.18 8.16 0.81 -0.00 -15.45 7.40 0.28 7.68 -18.70 -10.10 19.42 12.85 15.61 -7.43 12.46 1.54 21.03 -35.45 -23.96 
-0.6225 38.6093 -1.1958 -0.55 0.36 -5.33 -2.19 2.48 -0.03 1.00 5.05 0.00 -3.54 -3.42 -1.78 3.58 0.92 4.99 -1.00 8.90 0.00 1.27 -4.16 -0.04 -1.45 -2.52 -0.13 -8.00 0.97 0.00 18.31 8.31 -2.36 -5.88 -27.70 10.81 -15.18 11.89 -15.02 8.00 0.97 0.00 -15.89 8.08 -0.13 7.55 -19.39 -10.14 21.04 13.04 15.35 -7.39 12.42 1.53 20.85 -35.26 -23.60 
-0.6381 38.5830 -1.0911 -0.55 0.36 -5.64 -2.19 2.48 -0.03 1.00 5.55 0.00 -3.56 -4.07 -1.78 3.19 0.72 4.43 -1.00 9.88 0.00 0.87 -5.14 -0.06 -1.61 -2.18 -0.14 -8.00 0.97 0.00 19.07 7.84 -2.45 -5.52 -29.33 10.98 -16.17 11.47 -18.93 8.00 0.97 0.00 -16.11 8.66 -1.27 7.42 -20.07 -10.18 22.84 13.19 15.06 -6.99 12.47 1.45 21.66 -34.34 -22.88 
-0.6598 38.5701 -0.9856 -0.55 0.37 -5.86 -2.19 2.48 -0.03 1.00 5.96 0.00 -3.49 -4.39 -1.77 3.19 0.72 4.27 -1.00 10.45 0.00 0.71 -5.15 -0.07 -1.61 -1.84 -0.14 -8.16 0.97 0.00 19.40 7.39 -2.47 -5.22 -30.68 11.13 -16.92 11.24 -21.26 7.84 0.97 0.00 -16.11 9.11 -2.09 7.37 -20.36 -10.20 23.98 13.26 14.88 -6.95 12.47 1.44 20.91 -33.52 -22.77 
